# xmcd
#
# Track frame offsets:
#	150
#	16888
#	31761
#	45720
#	60763
#	78893
#	93626
#	109556
#	127109
#	144095
#	159214
#	176982
#	196711
#	210567
#
# Disc length: 3020 seconds
#
# Revision: 3
# Processed by: cddbd v1.5.2PL0 Copyright (c) Steve Scherf et al.
# Submitted via: audiograbber 1.83.01
#
DISCID=a50bca0e
DTITLE=Hitz - Country 2005 Volume 6
DYEAR=2005
DGENRE=Country
TTITLE0=Craig Morgan - Redneck Yacht Club
TTITLE1=Lonestar - You're Like Comin Home
TTITLE2=Phil Vassar - Good Ole Days
TTITLE3=Terri Clark - She Didn't Have Time
TTITLE4=Little Big Town - Boondocks
TTITLE5=Jessica Andrews - Summer Girl
TTITLE6=Josh Turner - Your Man
TTITLE7=Alison Krauss and Union Station - Goodbye Is All We Have
TTITLE8=Andy Griggs - This I Gotta See
TTITLE9=Aaron Lines - It Takes A Man
TTITLE10=Lila McCann - I Can Do This
TTITLE11=Kevin Fowler - Don't Touch My Willie
TTITLE12=Jeff Bates - Good People
TTITLE13=Darryl Worley - I Love Her, She Hates Me
EXTD=
EXTT0=
EXTT1=
EXTT2=
EXTT3=
EXTT4=
EXTT5=
EXTT6=
EXTT7=
EXTT8=
EXTT9=
EXTT10=
EXTT11=
EXTT12=
EXTT13=
PLAYORDER=
